<svg xmlns="http://www.w3.org/2000/svg" width="720" height="620" viewBox="0 0 720 620">
  <defs>
    <linearGradient id="g" x1="86" y1="56" x2="642" y2="560"><stop stop-color="#020617"/><stop offset="1" stop-color="#1e3a8a"/></linearGradient>
  </defs>
  <rect width="720" height="620" rx="44" fill="url(#g)"/>
  <path d="M170 310h380M360 150v320" stroke="#38bdf8" stroke-width="12" stroke-linecap="round" opacity=".55"/>
  <path d="M236 310c0-68 56-124 124-124s124 56 124 124-56 124-124 124-124-56-124-124Z" fill="none" stroke="#60a5fa" stroke-width="12" stroke-dasharray="22 20"/>
  <circle cx="360" cy="310" r="64" fill="#fff"/>
  <path d="M329 312l23 23 47-59" fill="none" stroke="#2563eb" stroke-width="12" stroke-linecap="round" stroke-linejoin="round"/>
  <rect x="84" y="98" width="170" height="100" rx="24" fill="#fff"/>
  <rect x="114" y="128" width="82" height="16" rx="8" fill="#2563eb"/>
  <rect x="114" y="160" width="108" height="12" rx="6" fill="#cbd5e1"/>
  <rect x="466" y="98" width="170" height="100" rx="24" fill="#fff"/>
  <circle cx="514" cy="148" r="24" fill="#06b6d4"/>
  <rect x="552" y="137" width="46" height="12" rx="6" fill="#cbd5e1"/>
  <rect x="84" y="424" width="170" height="100" rx="24" fill="#fff"/>
  <path d="M121 475h96" stroke="#2563eb" stroke-width="14" stroke-linecap="round"/>
  <rect x="466" y="424" width="170" height="100" rx="24" fill="#fff"/>
  <path d="M516 452v44M552 452v44M588 452v44" stroke="#06b6d4" stroke-width="13" stroke-linecap="round"/>
</svg>